<svg width="90" height="41" viewBox="0 0 90 41" fill="none" xmlns="http://www.w3.org/2000/svg">
<path d="M87.1053 5V5.46053H86.3158V7.56579H85.7895V5.46053H85V5H87.1053Z" fill="#0037B7"/>
<path d="M89.2106 5H90.0001V7.56579H89.4737V5.85526C89.4737 5.78947 89.4737 5.72369 89.4737 5.6579C89.4737 5.59211 89.4737 5.52632 89.4737 5.46053L88.9474 7.63158H88.4211L87.8948 5.46053C87.8948 5.52632 87.8948 5.59211 87.8948 5.6579C87.8948 5.72369 87.8948 5.78947 87.8948 5.85526V7.56579H87.3685V5H88.158L88.6185 7.03947L89.2106 5Z" fill="#0037B7"/>
<path d="M25.6 19.8C25.75 23.45 27.55 25.1 30.7 25.1C33 25.1 34.85 23.7 35.2 22.4H40.25C38.65 27.3 35.2 29.4 30.5 29.4C23.95 29.4 19.85 24.9 19.85 18.45C19.85 12.2 24.15 7.45002 30.5 7.45002C37.65 7.40002 41.05 13.35 40.65 19.8H25.6ZM34.9 16.15C34.35 13.25 33.1 11.7 30.35 11.7C26.7 11.7 25.65 14.5 25.6 16.15H34.9Z" fill="#0037B7"/>
<path d="M18.7 11.1001L0 5.1001V10.3501L12.95 14.5001L0 18.7001V19.1501V23.9001V23.9501L13.35 19.6501L18.7 17.9501V11.1501V11.1001Z" fill="#0037B7"/>
<path d="M18.65 23.9502H0V28.8002H18.65V23.9502Z" fill="#0037B7"/>
<path d="M54.25 7.4C51.65 7.4 49.1 8.35 47.7 10.5H47.6V0L41.9 1.85V28.8H47.35V26.15H47.45C48.7 28.45 51.25 29.4 54.3 29.4C58.45 29.4 62.95 26.05 62.95 18.4C62.9 10.75 58.4 7.4 54.25 7.4ZM52.3 25.05C48.9 25.05 47.4 21.85 47.4 18.4C47.4 14.9 48.9 11.7 52.3 11.7C55.7 11.7 57.2 14.9 57.2 18.4C57.15 21.9 55.7 25.05 52.3 25.05Z" fill="#0037B7"/>
<path d="M77.95 18.9C77.95 23.15 76.6 24.85 73.5 24.85C70.85 24.85 69.85 23.15 69.85 19.75V7.94995L64.1 9.79995V20.8C64.1 25.95 65.65 29.4 71.7 29.4C74.1 29.4 76.6 28.25 78.05 25.95H78.15V28.85H83.6V7.94995L77.85 9.79995L77.95 18.9Z" fill="#0037B7"/>
<path d="M0.0999985 34.75H2.8C3.55 34.75 4.1 34.95 4.5 35.35C4.85 35.7 5 36.15 5 36.7C5 37.65 4.5 38.25 3.75 38.5L5.2 40.6H3.7L2.45 38.7H1.45V40.6H0.149998L0.0999985 34.75ZM2.7 37.6C3.35 37.6 3.7 37.25 3.7 36.75C3.7 36.2 3.3 35.9 2.7 35.9H1.4V37.6H2.7Z" fill="#0037B7"/>
<path d="M6.15 34.75H10.6V35.9H7.45V37.05H10.2V38.2H7.45V39.45H10.65V40.6H6.15V34.75Z" fill="#0037B7"/>
<path d="M11.8 34.75H13.05V39.4H16V40.6H11.8V34.75Z" fill="#0037B7"/>
<path d="M18.3 34.75H17V40.6H18.3V34.75Z" fill="#0037B7"/>
<path d="M21.8 34.7H23L25.5 40.6H24.15L23.6 39.3H21.1L20.55 40.6H19.25L21.8 34.7ZM23.15 38.15L22.35 36.25L21.55 38.15H23.15Z" fill="#0037B7"/>
<path d="M26.4 34.75H29.1C29.75 34.75 30.3 34.95 30.65 35.25C30.9 35.5 31.05 35.85 31.05 36.25C31.05 36.9 30.7 37.3 30.3 37.5C31 37.75 31.4 38.15 31.4 38.95C31.4 40 30.55 40.55 29.2 40.55H26.4V34.75ZM28.85 37.1C29.4 37.1 29.8 36.9 29.8 36.5C29.8 36.1 29.5 35.9 28.95 35.9H27.7V37.15L28.85 37.1ZM29.2 39.45C29.75 39.45 30.1 39.25 30.1 38.8C30.1 38.4 29.8 38.15 29.15 38.15H27.65V39.45H29.2Z" fill="#0037B7"/>
<path d="M32.45 34.75H33.75V39.4H36.65V40.6H32.45V34.75Z" fill="#0037B7"/>
<path d="M37.6 34.75H42.05V35.9H38.9V37.05H41.65V38.2H38.9V39.45H42.1V40.6H37.6V34.75Z" fill="#0037B7"/>
<path d="M44.4 39.25H43.05V40.6H44.4V39.25Z" fill="#0037B7"/>
<path d="M50.15 34.7H51.35L53.85 40.6H52.5L51.95 39.3H49.45L48.9 40.6H47.6L50.15 34.7ZM51.5 38.15L50.7 36.25L49.9 38.15H51.5Z" fill="#0037B7"/>
<path d="M54.75 34.75H56.05V39.4H58.95V40.6H54.75V34.75Z" fill="#0037B7"/>
<path d="M58.65 34.75H60.05L61.25 38.7L62.55 34.7H63.65L65 38.7L66.2 34.75H67.55L65.55 40.65H64.4L63.1 36.8L61.75 40.65H60.65L58.65 34.75Z" fill="#0037B7"/>
<path d="M69.75 34.7H70.95L73.45 40.6H72.1L71.55 39.3H69.05L68.5 40.6H67.2L69.75 34.7ZM71.1 38.15L70.3 36.25L69.5 38.15H71.1Z" fill="#0037B7"/>
<path d="M75.1 38.3L72.85 34.75H74.35L75.75 37.1L77.15 34.75H78.65L76.4 38.25V40.6H75.1V38.3Z" fill="#0037B7"/>
<path d="M78.75 39.75L79.5 38.85C80.05 39.3 80.6 39.55 81.25 39.55C81.8 39.55 82.1 39.35 82.1 39C82.1 38.65 81.9 38.5 80.9 38.25C79.7 37.95 78.95 37.6 78.95 36.45C78.95 35.4 79.8 34.7 81 34.7C81.85 34.7 82.6 34.95 83.2 35.45L82.55 36.35C82.05 36 81.5 35.75 81.05 35.75C80.6 35.75 80.3 36 80.3 36.25C80.3 36.65 80.55 36.75 81.55 37C82.75 37.3 83.4 37.75 83.4 38.75C83.4 39.9 82.5 40.55 81.25 40.55C80.35 40.7 79.45 40.35 78.75 39.75Z" fill="#0037B7"/>
<path d="M85.65 39.25H84.3V40.6H85.65V39.25Z" fill="#0037B7"/>
</svg>
