<svg width="16" height="16" viewBox="0 0 16 16" fill="none" xmlns="http://www.w3.org/2000/svg">
<g opacity="0.8" clip-path="url(#clip0_544_1448)">
<path d="M12.6663 7.33366V5.33366C12.6663 4.09598 12.1747 2.909 11.2995 2.03383C10.4243 1.15866 9.23735 0.666992 7.99967 0.666992C6.762 0.666992 5.57501 1.15866 4.69984 2.03383C3.82467 2.909 3.33301 4.09598 3.33301 5.33366V7.33366C3.33301 9.53366 1.33301 10.067 1.33301 11.3337C1.33301 12.467 3.93301 13.3337 7.99967 13.3337C12.0663 13.3337 14.6663 12.467 14.6663 11.3337C14.6663 10.067 12.6663 9.53366 12.6663 7.33366Z" stroke="black" stroke-width="1.8" stroke-miterlimit="10" stroke-linecap="square"/>
<path d="M8.00001 14.6673C7.32601 14.6673 6.69268 14.6446 6.09668 14.6006C6.22374 15.0059 6.47688 15.3601 6.81922 15.6115C7.16157 15.863 7.57524 15.9986 8.00001 15.9986C8.42478 15.9986 8.83846 15.863 9.1808 15.6115C9.52315 15.3601 9.77628 15.0059 9.90335 14.6006C9.30735 14.6446 8.67401 14.6673 8.00001 14.6673Z" fill="black"/>
</g>
<defs>
<clipPath id="clip0_544_1448">
<rect width="16" height="16" fill="white"/>
</clipPath>
</defs>
</svg>
